<svg width="22" height="22" viewBox="0 0 22 22" fill="none" xmlns="http://www.w3.org/2000/svg" style="display: block;"><path d="M8.71019 10.29C8.52188 10.1017 8.26649 9.9959 8.00019 9.9959C7.73388 9.9959 7.47849 10.1017 7.29019 10.29C7.10188 10.4783 6.99609 10.7337 6.99609 11C6.99609 11.2663 7.10188 11.5217 7.29019 11.71L10.2902 14.71C10.3836 14.8027 10.4944 14.876 10.6163 14.9258C10.7381 14.9755 10.8686 15.0008 11.0002 15C11.1371 14.9957 11.2716 14.9632 11.3955 14.9047C11.5193 14.8463 11.6299 14.763 11.7202 14.66L18.7202 6.65999C18.8818 6.45932 18.9597 6.204 18.9377 5.94728C18.9157 5.69055 18.7955 5.45223 18.602 5.282C18.4086 5.11178 18.1569 5.02279 17.8995 5.0336C17.642 5.0444 17.3987 5.15416 17.2202 5.33999L11.0002 12.54L8.71019 10.29Z" fill="#52C41A" stroke="#52C41A" stroke-width="0.2"></path><path d="M19.9998 10C19.7346 10 19.4802 10.1054 19.2927 10.2929C19.1052 10.4804 18.9998 10.7348 18.9998 11C18.9998 13.1217 18.157 15.1566 16.6567 16.6569C15.1564 18.1571 13.1215 19 10.9998 19C9.4199 18.9993 7.87558 18.5308 6.56158 17.6535C5.24757 16.7763 4.22274 15.5297 3.61629 14.0708C3.00985 12.6119 2.84896 11.0061 3.1539 9.45589C3.45885 7.90569 4.21597 6.48048 5.32981 5.36C6.07052 4.60938 6.95349 4.01404 7.92707 3.60881C8.90065 3.20358 9.94527 2.99661 10.9998 3C11.6393 3.004 12.2764 3.07777 12.8998 3.22C13.0303 3.26035 13.1676 3.27356 13.3034 3.2588C13.4392 3.24404 13.5705 3.20163 13.6892 3.13418C13.808 3.06673 13.9116 2.97567 13.9938 2.86662C14.076 2.75757 14.135 2.63284 14.1672 2.50011C14.1994 2.36739 14.204 2.22948 14.1808 2.0949C14.1576 1.96032 14.1071 1.83191 14.0324 1.71759C13.9577 1.60327 13.8604 1.50547 13.7464 1.43021C13.6324 1.35495 13.5043 1.30383 13.3698 1.28C12.593 1.09724 11.7979 1.00331 10.9998 1C9.02415 1.01026 7.0958 1.60552 5.45811 2.71065C3.82042 3.81578 2.54678 5.38126 1.79793 7.20953C1.04908 9.0378 0.858572 11.0469 1.25045 12.9834C1.64232 14.9198 2.59902 16.6968 3.99981 18.09C5.8565 19.9475 8.37347 20.9939 10.9998 21C13.652 21 16.1955 19.9464 18.0709 18.0711C19.9462 16.1957 20.9998 13.6522 20.9998 11C20.9998 10.7348 20.8945 10.4804 20.7069 10.2929C20.5194 10.1054 20.265 10 19.9998 10Z" fill="#52C41A" stroke="#52C41A" stroke-width="0.2"></path></svg>