<svg width="186" height="186" viewBox="0 0 186 186" fill="none" xmlns="http://www.w3.org/2000/svg"><g filter="url(#filter0_i_2296_109208)"><circle cx="93.4844" cy="93.25" r="82.5" fill="#1890FF"></circle></g><circle cx="93.4844" cy="93.25" r="87.5" stroke="#F5F6FE" stroke-width="10"></circle><path d="M132.608 81.5866C133.566 79.6296 132.461 77.3007 130.337 76.8114L130.244 76.7903C126.377 75.9186 122.353 77.5532 120.245 80.9086C120.222 80.9447 120.199 80.9811 120.177 81.0176C118.611 83.5657 118.133 86.4012 118.213 89.1514C118.215 89.2083 118.216 89.2646 118.217 89.3206C118.294 94.0349 112.321 96.137 109.409 92.4287L88.3571 65.617C87.9701 65.1179 87.4883 64.7002 86.9393 64.388C86.3903 64.0758 85.785 63.8752 85.1582 63.7978C84.5314 63.7204 83.8955 63.7678 83.2871 63.9371C82.6787 64.1064 82.1097 64.3944 81.613 64.7844C81.1163 65.1744 80.7016 65.6588 80.3928 66.2098C80.084 66.7607 79.8872 67.3672 79.8137 67.9945C79.7402 68.6217 79.7915 69.2574 79.9646 69.8647C80.1376 70.4721 80.4291 71.0392 80.8223 71.5335L97.5128 92.7892C97.6988 93.0258 97.7894 93.3236 97.7667 93.6238C97.744 93.9239 97.6097 94.2047 97.3902 94.4107C97.2723 94.5215 97.1333 94.6075 96.9814 94.6633C96.8296 94.7192 96.6681 94.7439 96.5065 94.736C96.3449 94.728 96.1865 94.6875 96.0409 94.617C95.8953 94.5465 95.7654 94.4473 95.659 94.3255L74.2531 69.8411C73.8391 69.3675 73.3358 68.9801 72.7721 68.701C72.2084 68.4219 71.5953 68.2566 70.9677 68.2144C70.3401 68.1723 69.7103 68.2542 69.1143 68.4554C68.5184 68.6567 67.9679 68.9734 67.4943 69.3874C67.0208 69.8013 66.6334 70.3046 66.3543 70.8683C66.0752 71.432 65.9098 72.0451 65.8677 72.6727C65.8256 73.3003 65.9075 73.9301 66.1087 74.5261C66.31 75.122 66.6266 75.6725 67.0406 76.1461L90.1622 102.595C90.3071 102.761 90.3873 102.973 90.3883 103.193C90.3892 103.414 90.3108 103.627 90.1674 103.794C89.8069 104.217 89.1588 104.197 88.7778 103.794L69.7756 83.7287C68.902 82.8064 67.6979 82.2687 66.428 82.2342C65.1581 82.1996 63.9265 82.6709 63.0041 83.5444C62.0818 84.4179 61.5442 85.6221 61.5096 86.892C61.475 88.1618 61.9463 89.3934 62.8198 90.3158L84.8322 113.559C84.9655 113.7 85.0443 113.884 85.0548 114.077C85.0652 114.271 85.0065 114.462 84.8892 114.616C84.5937 115.009 84.0205 115.03 83.659 114.697L70.9924 103.05C70.5294 102.624 69.987 102.294 69.3963 102.077C68.8056 101.861 68.1782 101.763 67.5497 101.79C66.9212 101.816 66.3041 101.966 65.7335 102.231C65.163 102.496 64.6502 102.87 64.2244 103.333C63.7986 103.796 63.4682 104.339 63.252 104.929C63.0358 105.52 62.9381 106.147 62.9644 106.776C62.9907 107.404 63.1405 108.021 63.4054 108.592C63.6702 109.163 64.0448 109.675 64.5078 110.101L82.0153 126.202C82.0153 126.202 89.0569 132.807 90.6531 134.008C92.8351 135.65 95.1613 137.092 97.6033 138.315C103.475 141.254 110.45 140.818 115.935 137.207C118.175 135.731 120.28 134.06 122.226 132.213C128.451 126.304 131.544 117.821 130.7 109.28C130.477 106.993 130.114 104.722 129.616 102.48C128.835 98.979 128.68 95.3624 129.292 91.8277C129.907 88.2742 131.023 84.826 132.608 81.5866Z" fill="#1785EC"></path><path d="M133.608 74.5866C134.566 72.6296 133.461 70.3007 131.337 69.8114L131.244 69.7903C127.377 68.9186 123.353 70.5532 121.245 73.9086C121.222 73.9447 121.199 73.9811 121.177 74.0176C119.611 76.5657 119.133 79.4012 119.213 82.1514C119.215 82.2083 119.216 82.2646 119.217 82.3206C119.294 87.0349 113.321 89.137 110.409 85.4287L89.3571 58.617C88.9701 58.1179 88.4883 57.7002 87.9393 57.388C87.3903 57.0758 86.785 56.8752 86.1582 56.7978C85.5314 56.7204 84.8955 56.7678 84.2871 56.9371C83.6787 57.1064 83.1097 57.3944 82.613 57.7844C82.1163 58.1744 81.7016 58.6588 81.3928 59.2098C81.084 59.7607 80.8872 60.3672 80.8137 60.9945C80.7402 61.6217 80.7915 62.2574 80.9646 62.8647C81.1376 63.4721 81.4291 64.0392 81.8223 64.5335L98.5128 85.7892C98.6988 86.0258 98.7894 86.3236 98.7667 86.6238C98.744 86.9239 98.6097 87.2047 98.3902 87.4107C98.2723 87.5215 98.1333 87.6075 97.9814 87.6633C97.8296 87.7192 97.6681 87.7439 97.5065 87.736C97.3449 87.728 97.1865 87.6875 97.0409 87.617C96.8953 87.5465 96.7654 87.4473 96.659 87.3255L75.2531 62.8411C74.8391 62.3675 74.3358 61.9801 73.7721 61.701C73.2084 61.4219 72.5953 61.2566 71.9677 61.2144C71.3401 61.1723 70.7103 61.2542 70.1143 61.4554C69.5184 61.6567 68.9679 61.9734 68.4943 62.3874C68.0208 62.8013 67.6334 63.3046 67.3543 63.8683C67.0752 64.432 66.9098 65.0451 66.8677 65.6727C66.8256 66.3003 66.9075 66.9301 67.1087 67.5261C67.31 68.122 67.6266 68.6725 68.0406 69.1461L91.1622 95.595C91.3071 95.7608 91.3873 95.9733 91.3883 96.1935C91.3892 96.4137 91.3108 96.6268 91.1674 96.7939C90.8069 97.2169 90.1588 97.1973 89.7778 96.7939L70.7756 76.7287C69.902 75.8064 68.6979 75.2687 67.428 75.2342C66.1581 75.1996 64.9265 75.6709 64.0041 76.5444C63.0818 77.4179 62.5442 78.6221 62.5096 79.892C62.475 81.1618 62.9463 82.3934 63.8198 83.3158L85.8322 106.559C85.9655 106.7 86.0443 106.884 86.0548 107.077C86.0652 107.271 86.0065 107.462 85.8892 107.616C85.5937 108.009 85.0205 108.03 84.659 107.697L71.9924 96.0498C71.5294 95.624 70.987 95.2936 70.3963 95.0774C69.8056 94.8612 69.1782 94.7635 68.5497 94.7898C67.9212 94.8161 67.3041 94.966 66.7335 95.2308C66.163 95.4956 65.6502 95.8702 65.2244 96.3332C64.7986 96.7962 64.4682 97.3385 64.252 97.9292C64.0358 98.5199 63.9381 99.1474 63.9644 99.7759C63.9907 100.404 64.1405 101.021 64.4054 101.592C64.6702 102.163 65.0448 102.675 65.5078 103.101L83.0153 119.202C83.0153 119.202 90.0569 125.807 91.6531 127.008C93.8351 128.65 96.1613 130.092 98.6033 131.315C104.475 134.254 111.45 133.818 116.935 130.207C119.175 128.731 121.28 127.06 123.226 125.213C129.451 119.304 132.544 110.821 131.7 102.28C131.477 99.9932 131.114 97.7224 130.616 95.4798C129.835 91.979 129.68 88.3624 130.292 84.8277C130.907 81.2742 132.023 77.826 133.608 74.5866Z" fill="#FFBB24"></path><mask id="mask0_2296_109208" maskUnits="userSpaceOnUse" x="62" y="56" width="72" height="78" style="mask-type: alpha;"><path d="M133.608 74.5866C134.566 72.6296 133.461 70.3007 131.337 69.8114L131.244 69.7903C127.377 68.9186 123.353 70.5532 121.245 73.9086C121.222 73.9447 121.199 73.9811 121.177 74.0176C119.611 76.5657 119.133 79.4012 119.213 82.1514C119.215 82.2083 119.216 82.2646 119.217 82.3206C119.294 87.0349 113.321 89.137 110.409 85.4287L89.3571 58.617C88.9701 58.1179 88.4883 57.7002 87.9393 57.388C87.3903 57.0758 86.785 56.8752 86.1582 56.7978C85.5314 56.7204 84.8955 56.7678 84.2871 56.9371C83.6787 57.1064 83.1097 57.3944 82.613 57.7844C82.1163 58.1744 81.7016 58.6588 81.3928 59.2098C81.084 59.7607 80.8872 60.3672 80.8137 60.9945C80.7402 61.6217 80.7915 62.2574 80.9646 62.8647C81.1376 63.4721 81.4291 64.0392 81.8223 64.5335L98.5128 85.7892C98.6988 86.0258 98.7894 86.3236 98.7667 86.6238C98.744 86.9239 98.6097 87.2047 98.3902 87.4107C98.2723 87.5215 98.1333 87.6075 97.9814 87.6633C97.8296 87.7192 97.6681 87.7439 97.5065 87.736C97.3449 87.728 97.1865 87.6875 97.0409 87.617C96.8953 87.5465 96.7654 87.4473 96.659 87.3255L75.2531 62.8411C74.8391 62.3675 74.3358 61.9801 73.7721 61.701C73.2084 61.4219 72.5953 61.2566 71.9677 61.2144C71.3401 61.1723 70.7103 61.2542 70.1143 61.4554C69.5184 61.6567 68.9679 61.9734 68.4943 62.3874C68.0208 62.8013 67.6334 63.3046 67.3543 63.8683C67.0752 64.432 66.9098 65.0451 66.8677 65.6727C66.8256 66.3003 66.9075 66.9301 67.1087 67.5261C67.31 68.122 67.6266 68.6725 68.0406 69.1461L91.1622 95.595C91.3071 95.7608 91.3873 95.9733 91.3883 96.1935C91.3892 96.4137 91.3108 96.6268 91.1674 96.7939C90.8069 97.2169 90.1588 97.1973 89.7778 96.7939L70.7756 76.7287C69.902 75.8064 68.6979 75.2687 67.428 75.2342C66.1581 75.1996 64.9265 75.6709 64.0041 76.5444C63.0818 77.4179 62.5442 78.6221 62.5096 79.892C62.475 81.1618 62.9463 82.3934 63.8198 83.3158L85.8322 106.559C85.9655 106.7 86.0443 106.884 86.0548 107.077C86.0652 107.271 86.0065 107.462 85.8892 107.616C85.5937 108.009 85.0205 108.03 84.659 107.697L71.9924 96.0498C71.5294 95.624 70.987 95.2936 70.3963 95.0774C69.8056 94.8612 69.1782 94.7635 68.5497 94.7898C67.9212 94.8161 67.3041 94.966 66.7335 95.2308C66.163 95.4956 65.6502 95.8702 65.2244 96.3332C64.7986 96.7962 64.4682 97.3385 64.252 97.9292C64.0358 98.5199 63.9381 99.1474 63.9644 99.7759C63.9907 100.404 64.1405 101.021 64.4054 101.592C64.6702 102.163 65.0448 102.675 65.5078 103.101L83.0153 119.202C83.0153 119.202 90.0569 125.807 91.6531 127.008C93.8351 128.65 96.1613 130.092 98.6033 131.315C104.475 134.254 111.45 133.818 116.935 130.207C119.175 128.731 121.28 127.06 123.226 125.213C129.451 119.304 132.544 110.821 131.7 102.28C131.477 99.9932 131.114 97.7224 130.616 95.4798C129.835 91.979 129.68 88.3624 130.292 84.8277C130.907 81.2742 132.023 77.826 133.608 74.5866Z" fill="#FADB14"></path></mask><g mask="url(#mask0_2296_109208)"><path d="M132.234 109.25C121.434 132.05 100.804 136.373 77.7344 115.25L94.7344 136.75L130.984 134.5L132.234 109.25Z" fill="#E4AA27"></path><path d="M119.047 98.9375C119.047 98.9375 113.734 91.9375 109.797 84.4375L119.047 83.7812C118.047 89.3125 118.484 94.5 119.047 98.9375Z" fill="#E3A61C"></path><g style="mix-blend-mode: overlay;"><path d="M93.3594 63.375C94.2344 65.125 117.234 83.5 117.234 83.5C122.633 72.9828 126.401 70.3972 134.734 73V54.25L85.9844 36L45.2344 64.25L63.8594 101.875C66.2608 95.9546 68.9343 96.3839 73.6094 96.5L62.1094 82C65.1771 76.8287 68.69 77.388 73.6094 78.625L65.7344 68.5C69.109 62.8164 74.0901 62.0359 79.2344 66.125V62.25C85.2304 57.3506 92.4844 61.625 93.3594 63.375Z" fill="white" fill-opacity="0.3"></path></g></g><path d="M63.5146 125.935C57.6466 122.455 52.7263 117.583 49.1886 111.75C49.1057 111.613 49.0511 111.46 49.028 111.302C49.005 111.143 49.0141 110.981 49.0546 110.826C49.0952 110.671 49.1664 110.526 49.2642 110.399C49.3619 110.271 49.4841 110.165 49.6236 110.086C49.8946 109.933 50.2147 109.891 50.5159 109.97C50.817 110.049 51.0755 110.243 51.2364 110.509C54.5701 116.006 59.2066 120.596 64.7359 123.875C65.0039 124.034 65.1996 124.29 65.2813 124.591C65.3631 124.891 65.3245 125.211 65.1739 125.484C65.0962 125.624 64.9912 125.747 64.8651 125.846C64.739 125.945 64.5943 126.018 64.4396 126.06C64.2849 126.102 64.1233 126.113 63.9644 126.091C63.8056 126.07 63.6526 126.017 63.5146 125.935ZM66.5615 120.342C61.8668 117.515 57.8973 113.63 54.9692 108.998C54.8836 108.862 54.8263 108.71 54.8007 108.551C54.7751 108.392 54.7817 108.23 54.82 108.074C54.8584 107.918 54.9278 107.771 55.0241 107.642C55.1203 107.514 55.2415 107.406 55.3804 107.325C55.6486 107.168 55.9669 107.123 56.2682 107.197C56.5695 107.271 56.8303 107.459 56.9955 107.722C59.7232 112.037 63.4206 115.655 67.7933 118.289C68.0595 118.448 68.2534 118.705 68.334 119.004C68.4146 119.304 68.3757 119.623 68.2253 119.895C68.1474 120.035 68.0419 120.159 67.9153 120.258C67.7887 120.357 67.6434 120.429 67.4882 120.471C67.333 120.513 67.171 120.523 67.0118 120.501C66.8526 120.479 66.6994 120.425 66.5615 120.342Z" fill="white"></path><path d="M104.372 49.5331C109.577 53.9434 113.615 59.568 116.13 65.9097C116.189 66.0588 116.217 66.2183 116.213 66.3786C116.209 66.5388 116.173 66.6967 116.108 66.8429C116.042 66.9891 115.947 67.1206 115.83 67.2296C115.712 67.3386 115.574 67.4229 115.423 67.4776C115.13 67.5837 114.808 67.5714 114.524 67.4435C114.24 67.3155 114.018 67.082 113.903 66.7924C111.534 60.8165 107.729 55.5163 102.824 51.3603C102.587 51.1593 102.436 50.8735 102.406 50.5636C102.376 50.2538 102.467 49.9443 102.662 49.701C102.762 49.5757 102.886 49.4718 103.027 49.3953C103.167 49.3188 103.322 49.2714 103.482 49.2557C103.641 49.2401 103.802 49.2566 103.955 49.3042C104.108 49.3518 104.25 49.4297 104.372 49.5331ZM100.436 54.5402C104.593 58.1114 107.858 62.6041 109.972 67.6604C110.033 67.8089 110.064 67.9683 110.063 68.1291C110.062 68.2899 110.028 68.4488 109.964 68.5963C109.9 68.7438 109.807 68.877 109.691 68.9879C109.575 69.0987 109.437 69.185 109.287 69.2416C108.996 69.3509 108.674 69.3431 108.39 69.2197C108.105 69.0963 107.879 68.8672 107.76 68.5805C105.791 63.8711 102.75 59.6864 98.8782 56.3596C98.6423 56.158 98.4939 55.8726 98.4644 55.5637C98.4349 55.2548 98.5266 54.9465 98.72 54.7039C98.8203 54.5784 98.9448 54.4743 99.0861 54.3979C99.2274 54.3215 99.3826 54.2742 99.5425 54.2589C99.7024 54.2437 99.8638 54.2607 100.017 54.309C100.17 54.3574 100.312 54.436 100.434 54.5402H100.436Z" fill="white"></path><defs><filter id="filter0_i_2296_109208" x="0.984375" y="0.75" width="185" height="193" filterUnits="userSpaceOnUse" color-interpolation-filters="sRGB"><feFlood flood-opacity="0" result="BackgroundImageFix"></feFlood><feBlend mode="normal" in="SourceGraphic" in2="BackgroundImageFix" result="shape"></feBlend><feColorMatrix in="SourceAlpha" type="matrix" values="0 0 0 0 0 0 0 0 0 0 0 0 0 0 0 0 0 0 127 0" result="hardAlpha"></feColorMatrix><feOffset dy="15"></feOffset><feGaussianBlur stdDeviation="4"></feGaussianBlur><feComposite in2="hardAlpha" operator="arithmetic" k2="-1" k3="1"></feComposite><feColorMatrix type="matrix" values="0 0 0 0 0.0941176 0 0 0 0 0.564706 0 0 0 0 1 0 0 0 1 0"></feColorMatrix><feBlend mode="normal" in2="shape" result="effect1_innerShadow_2296_109208"></feBlend></filter></defs></svg>