<svg width="56" height="56" viewBox="0 0 56 56" fill="none" xmlns="http://www.w3.org/2000/svg">
    <g clip-path="url(#clip0)">
        <path d="M53.0276 45.847C53.0276 43.0549 50.838 40.7915 48.1371 40.7915C45.4361 40.7915 43.2466 43.0549 43.2466 45.847C43.2466 48.6391 45.4361 50.9026 48.1371 50.9026C50.838 50.9026 53.0276 48.6391 53.0276 45.847Z" stroke="#FA8C16" stroke-width="3"/>
        <path d="M10.1414 45.847C10.1414 43.0549 8.12029 40.7915 5.6271 40.7915C3.13392 40.7915 1.11279 43.0549 1.11279 45.847C1.11279 48.6391 3.13392 50.9026 5.6271 50.9026C8.12029 50.9026 10.1414 48.6391 10.1414 45.847Z" stroke="#FA8C16" stroke-width="3"/>
        <path d="M6.75539 42.7358C5.09327 42.7358 3.74585 44.1287 3.74585 45.8469C3.74585 47.5651 5.09327 48.958 6.75539 48.958H47.3842C49.0463 48.958 50.3937 47.5651 50.3937 45.8469C50.3937 44.1287 49.0463 42.7358 47.3842 42.7358H6.75539Z" fill="#FA8C16"/>
        <path d="M6.75542 43.1246C5.30106 43.1246 4.12207 44.3434 4.12207 45.8469C4.12207 47.3503 5.30106 48.5691 6.75542 48.5691H47.3842C48.8386 48.5691 50.0175 47.3503 50.0175 45.8469C50.0175 44.3434 48.8386 43.1246 47.3842 43.1246H6.75542Z" stroke="white"/>
        <path d="M52.1441 29.9922C53.4142 27.7079 52.6306 24.7692 50.394 23.4283C48.1573 22.0874 45.3145 22.8522 44.0444 25.1364C42.7743 27.4207 43.5578 30.3595 45.7945 31.7003C48.0312 33.0412 50.874 32.2765 52.1441 29.9922Z" stroke="#FA8C16" stroke-width="3"/>
        <path d="M19.6275 10.585C20.8976 8.30072 20.114 5.36196 17.8774 4.02108C15.6407 2.68019 12.7979 3.44495 11.5278 5.72921C10.2576 8.01347 11.0412 10.9522 13.2779 12.2931C15.5146 13.634 18.3574 12.8692 19.6275 10.585Z" stroke="#FA8C16" stroke-width="3"/>
        <path d="M17.814 6.0735C16.4308 5.24632 14.6727 5.71809 13.8873 7.12723C13.1018 8.53638 13.5864 10.3493 14.9696 11.1765L45.8561 29.6472C47.2393 30.4743 48.9973 30.0026 49.7828 28.5934C50.5682 27.1843 50.0837 25.3714 48.7005 24.5442L17.814 6.0735Z" fill="#FA8C16"/>
        <path d="M17.6306 6.40923C16.4277 5.69 14.8989 6.10021 14.2158 7.32545C13.5327 8.55069 13.9541 10.127 15.157 10.8462L46.0395 29.3114C47.2424 30.0306 48.7712 29.6204 49.4543 28.3951C50.1374 27.1699 49.716 25.5936 48.5131 24.8744L17.6306 6.40923Z" stroke="white"/>
    </g>
    <defs>
        <clipPath id="clip0">
            <rect width="56" height="56" fill="white"/>
        </clipPath>
    </defs>
</svg>
