<svg width="56" height="56" viewBox="0 0 56 56" fill="none" xmlns="http://www.w3.org/2000/svg">
    <path d="M0.549114 56C0.403481 56 0.263812 55.9422 0.160834 55.8392C0.0578557 55.7362 3.09053e-06 55.5966 3.09053e-06 55.4509L3.09053e-06 14.2489C-0.00198679 11.2278 0.956981 8.28425 2.73824 5.84405C4.51949 3.40384 7.03071 1.59341 9.90876 0.674557C12.7868 -0.244297 15.8825 -0.223952 18.7483 0.732649C21.614 1.68925 24.1012 3.53253 25.8502 5.99593L25.8191 6.01382C20.79 8.85971 20.811 8.81927 20.0962 9.34349C19.091 8.13432 17.7371 7.26486 16.2193 6.85379C14.7015 6.44272 13.0939 6.51008 11.6158 7.04666C10.1377 7.58325 8.8613 8.56292 7.96072 9.85194C7.06014 11.141 6.57932 12.6765 6.58389 14.2489L6.58389 55.4509C6.58389 55.5964 6.52615 55.736 6.42334 55.8389C6.32053 55.9419 6.18106 55.9998 6.03556 56H0.549114ZM29.7469 47.0175L29.5136 45.4355C29.4824 45.2216 29.4936 45.0036 29.5466 44.794C29.5997 44.5844 29.6935 44.3873 29.8227 44.214C30.0836 43.8639 30.4729 43.6318 30.905 43.5688C31.3371 43.5058 31.7764 43.617 32.1265 43.8779C32.4766 44.1389 32.7086 44.5282 32.7717 44.9603L33.005 46.5423C33.0362 46.7562 33.025 46.9742 32.9719 47.1838C32.9189 47.3933 32.8251 47.5904 32.6959 47.7638C32.5667 47.9371 32.4046 48.0833 32.2189 48.194C32.0332 48.3047 31.8275 48.3777 31.6136 48.4089C31.3996 48.4401 31.1816 48.4289 30.9721 48.3759C30.7625 48.3228 30.5654 48.229 30.392 48.0998C30.2187 47.9706 30.0725 47.8085 29.9618 47.6228C29.8511 47.4371 29.7781 47.2314 29.7469 47.0175ZM37.5091 43.0959L36.9444 41.7014C36.8634 41.501 36.8226 41.2866 36.8244 41.0704C36.8262 40.8543 36.8706 40.6406 36.955 40.4416C37.1254 40.0396 37.4486 39.7219 37.8533 39.5582C38.258 39.3945 38.7112 39.3983 39.1131 39.5688C39.515 39.7392 39.8328 40.0623 39.9964 40.467L40.5603 41.8616C40.6414 42.062 40.6823 42.2765 40.6805 42.4927C40.6787 42.709 40.6343 42.9227 40.5499 43.1218C40.4655 43.3209 40.3428 43.5014 40.1886 43.653C40.0345 43.8047 39.8519 43.9244 39.6515 44.0055C39.4511 44.0866 39.2366 44.1275 39.0204 44.1257C38.8041 44.1239 38.5904 44.0795 38.3913 43.9952C38.1922 43.9108 38.0117 43.788 37.8601 43.6338C37.7084 43.4797 37.5887 43.2972 37.5076 43.0967L37.5091 43.0959ZM45.3732 39.1588L44.4764 37.9556C44.216 37.6049 44.1056 37.1652 44.1694 36.733C44.2332 36.3009 44.466 35.9119 44.8167 35.6514C45.1674 35.391 45.6072 35.2805 46.0393 35.3444C46.4714 35.4082 46.8605 35.641 47.1209 35.9917L48.0177 37.1996C48.1466 37.3732 48.2401 37.5706 48.2928 37.7803C48.3455 37.9901 48.3563 38.2082 48.3247 38.4222C48.2931 38.6361 48.2197 38.8418 48.1086 39.0273C47.9976 39.2129 47.851 39.3748 47.6774 39.5038C47.5038 39.6327 47.3064 39.7262 47.0967 39.7789C46.8869 39.8316 46.6688 39.8424 46.4548 39.8108C46.2409 39.7792 46.0352 39.7058 45.8496 39.5947C45.6641 39.4837 45.5022 39.3371 45.3732 39.1635V39.1588ZM29.0764 37.2556L28.8221 35.7304C28.7864 35.5172 28.793 35.299 28.8415 35.0883C28.8901 34.8777 28.9797 34.6786 29.1052 34.5026C29.2307 34.3265 29.3896 34.1769 29.5729 34.0623C29.7562 33.9477 29.9603 33.8703 30.1735 33.8345C30.3867 33.7988 30.6049 33.8054 30.8156 33.854C31.0262 33.9025 31.2253 33.9921 31.4013 34.1176C31.5773 34.2431 31.7269 34.402 31.8416 34.5853C31.9562 34.7686 32.0336 34.9727 32.0693 35.1859L32.3244 36.7112C32.3966 37.1419 32.2948 37.5836 32.0413 37.9392C31.7878 38.2948 31.4034 38.5352 30.9727 38.6074C30.542 38.6796 30.1002 38.5777 29.7446 38.3242C29.389 38.0707 29.1486 37.6863 29.0764 37.2556ZM53.3019 35.147L52.073 34.1258C51.7514 33.843 51.5527 33.446 51.519 33.019C51.4854 32.5921 51.6193 32.1688 51.8926 31.839C52.1658 31.5092 52.5567 31.2989 52.9825 31.2526C53.4082 31.2063 53.8353 31.3277 54.173 31.591L55.4019 32.6115C55.5778 32.7462 55.7248 32.9151 55.8339 33.108C55.9431 33.3009 56.0122 33.5138 56.0371 33.734C56.0621 33.9542 56.0423 34.1772 55.9791 34.3896C55.9158 34.602 55.8103 34.7994 55.669 34.9701C55.5276 35.1408 55.3533 35.2812 55.1564 35.3829C54.9595 35.4846 54.7441 35.5456 54.5231 35.5621C54.3021 35.5786 54.08 35.5504 53.8702 35.479C53.6603 35.4077 53.4671 35.2948 53.3019 35.147ZM37.079 33.4009L36.3673 32.1316C36.1535 31.7508 36.0997 31.3007 36.2178 30.8802C36.3359 30.4598 36.6162 30.1035 36.9969 29.8897C37.3777 29.6758 37.8279 29.6221 38.2483 29.7401C38.6688 29.8582 39.0251 30.1385 39.2389 30.5193L39.9498 31.7878C40.0583 31.9765 40.1283 32.1847 40.1558 32.4006C40.1833 32.6165 40.1678 32.8357 40.1101 33.0455C40.0523 33.2553 39.9536 33.4516 39.8195 33.623C39.6855 33.7945 39.5188 33.9376 39.3291 34.0442C39.1393 34.1508 38.9304 34.2188 38.7142 34.2441C38.4981 34.2695 38.2791 34.2517 38.0699 34.1919C37.8606 34.1321 37.6653 34.0314 37.4953 33.8956C37.3252 33.7598 37.1837 33.5917 37.079 33.4009ZM20.1507 30.6842L19.4242 29.4C19.2086 29.0171 19.1535 28.5643 19.271 28.1409C19.3885 27.7174 19.669 27.3577 20.0511 27.1406C20.4937 26.8902 41.3474 15.085 42.2956 14.5507C42.6782 14.3358 43.1304 14.2813 43.5531 14.3991C43.9759 14.5169 44.3347 14.7974 44.5511 15.1792L45.2776 16.464C45.5691 16.9795 45.6439 17.5895 45.4857 18.1601C45.3274 18.7307 44.949 19.2151 44.4337 19.5067L23.1918 31.5296C22.9367 31.674 22.6556 31.7666 22.3647 31.8023C22.0737 31.838 21.7786 31.816 21.4962 31.7376C21.2137 31.6591 20.9495 31.5258 20.7187 31.3451C20.4878 31.1645 20.2948 30.9402 20.1507 30.6849V30.6842ZM45.2511 29.4514L44.0844 28.4403C43.7707 28.1502 43.582 27.7495 43.5582 27.3228C43.5345 26.8962 43.6775 26.477 43.9571 26.1538C44.2367 25.8307 44.631 25.6289 45.0567 25.5912C45.4823 25.5534 45.906 25.6825 46.2381 25.9514L47.4048 26.9625C47.5764 27.1014 47.7183 27.2734 47.8221 27.4683C47.9259 27.6631 47.9895 27.8769 48.009 28.0968C48.0285 28.3167 48.0036 28.5383 47.9358 28.7484C47.8679 28.9585 47.7585 29.1528 47.614 29.3198C47.4695 29.4867 47.293 29.6229 47.0948 29.7203C46.8966 29.8176 46.6809 29.8741 46.4605 29.8864C46.24 29.8987 46.0193 29.8665 45.8116 29.7917C45.6038 29.717 45.4132 29.6013 45.2511 29.4514ZM19.8629 22.2375C18.9477 20.6192 18.6327 18.7299 18.9733 16.9022C19.3139 15.0745 20.2883 13.4255 21.7249 12.2454C22.4132 11.6823 22.4918 11.6799 27.4392 8.88071C28.3408 8.36988 29.3343 8.04186 30.3628 7.91543C31.3913 7.789 32.4347 7.86664 33.4331 8.14391C34.4316 8.42118 35.3656 8.89263 36.1816 9.53128C36.9977 10.1699 37.6798 10.9632 38.1889 11.8658L38.7123 12.7929L20.3879 23.1654L19.8629 22.2375Z" fill="#FA8C16"/>
</svg>
