<svg width="56" height="56" viewBox="0 0 41 40" fill="none" xmlns="http://www.w3.org/2000/svg">
    <path d="M18.1615 27.5C16.8834 26.1075 16.1957 24.2733 16.2431 22.3839C16.228 20.8811 16.6968 19.4134 17.5804 18.1977C18.3463 17.0767 19.3362 16.1266 20.4876 15.4072C21.5379 14.7842 22.5133 14.0429 23.3948 13.1978C23.7806 12.8859 24.0984 12.4982 24.3284 12.0586C24.5584 11.6191 24.6958 11.137 24.732 10.6422C24.7419 10.1835 24.6445 9.72884 24.4476 9.31446C24.2506 8.90008 23.9595 8.53747 23.5976 8.25554C22.8417 7.63554 21.708 7.32554 20.1965 7.32554C17.4446 7.32554 15.0609 8.52702 13.0454 10.93L8.33594 5.63943C11.553 1.87981 15.7974 0 21.0693 0C24.7904 0 27.7361 0.842962 29.9065 2.52888C30.9443 3.29507 31.7821 4.30022 32.3489 5.45911C32.9156 6.618 33.1945 7.89646 33.162 9.1861C33.1846 10.6418 32.845 12.0803 32.1737 13.3722C31.58 14.5314 30.7595 15.5595 29.7609 16.3955C28.8113 17.1707 27.852 17.8877 26.8831 18.5466C25.9753 19.1504 25.153 19.874 24.4387 20.6977C23.8151 21.3825 23.4635 22.2717 23.4504 23.1977C23.4333 23.6572 23.5184 24.1147 23.6994 24.5374C23.8804 24.9601 24.1528 25.3374 24.497 25.6422L18.1615 27.5ZM24.2659 38.6044C23.8344 39.0461 23.319 39.3971 22.7499 39.6367C22.1808 39.8763 21.5695 39.9998 20.952 39.9998C20.3345 39.9998 19.7233 39.8763 19.1542 39.6367C18.5851 39.3971 18.0696 39.0461 17.6381 38.6044C17.1964 38.1729 16.8455 37.6574 16.6058 37.0883C16.3662 36.5192 16.2428 35.908 16.2428 35.2905C16.2428 34.673 16.3662 34.0618 16.6058 33.4927C16.8455 32.9236 17.1964 32.4081 17.6381 31.9766C18.0696 31.5349 18.5851 31.1839 19.1542 30.9443C19.7233 30.7047 20.3345 30.5812 20.952 30.5812C21.5695 30.5812 22.1808 30.7047 22.7499 30.9443C23.319 31.1839 23.8344 31.5349 24.2659 31.9766C24.7076 32.4081 25.0586 32.9236 25.2982 33.4927C25.5378 34.0618 25.6613 34.673 25.6613 35.2905C25.6613 35.908 25.5378 36.5192 25.2982 37.0883C25.0586 37.6574 24.7076 38.1729 24.2659 38.6044Z" fill="#FA8C16"/>
</svg>
