<svg width="57" height="57" viewBox="0 0 57 57" fill="none" xmlns="http://www.w3.org/2000/svg">
<path d="M41.9295 21.9334C42.4762 21.3867 42.4762 20.5002 41.9295 19.9535C41.3828 19.4068 40.4963 19.4068 39.9496 19.9535L41.9295 21.9334ZM25.6269 36.2561L24.637 37.246C25.1837 37.7927 26.0701 37.7927 26.6169 37.246L25.6269 36.2561ZM18.0191 26.6684C17.4724 26.1216 16.586 26.1216 16.0392 26.6684C15.4925 27.2151 15.4925 28.1015 16.0392 28.6483L18.0191 26.6684ZM39.9496 19.9535L24.637 35.2661L26.6169 37.246L41.9295 21.9334L39.9496 19.9535ZM26.6169 35.2661L18.0191 26.6684L16.0392 28.6483L24.637 37.246L26.6169 35.2661Z" fill="#FA8C16"/>
<rect x="2.38437" y="1.9" width="53.2" height="53.2" rx="26.6" stroke="#FA8C16" stroke-width="2.8"/>
</svg>
