<!DOCTYPE svg PUBLIC "-//W3C//DTD SVG 1.1//EN" "http://www.w3.org/Graphics/SVG/1.1/DTD/svg11.dtd">
<!-- Uploaded to: SVG Repo, www.svgrepo.com, Transformed by: SVG Repo Mixer Tools -->
<svg fill="#55bc7e" width="128px" height="128px" viewBox="0 0 24.00 24.00" xmlns="http://www.w3.org/2000/svg" stroke="#55bc7e" stroke-width="0.00024000000000000003">
<g id="SVGRepo_bgCarrier" stroke-width="0"/>
<g id="SVGRepo_tracerCarrier" stroke-linecap="round" stroke-linejoin="round"/>
<g id="SVGRepo_iconCarrier"> <g data-name="Layer 2"> <g data-name="checkmark-square"> <rect width="24" height="24" opacity="0"/> <path d="M20 11.83a1 1 0 0 0-1 1v5.57a.6.6 0 0 1-.6.6H5.6a.6.6 0 0 1-.6-.6V5.6a.6.6 0 0 1 .6-.6h9.57a1 1 0 1 0 0-2H5.6A2.61 2.61 0 0 0 3 5.6v12.8A2.61 2.61 0 0 0 5.6 21h12.8a2.61 2.61 0 0 0 2.6-2.6v-5.57a1 1 0 0 0-1-1z"/> <path d="M10.72 11a1 1 0 0 0-1.44 1.38l2.22 2.33a1 1 0 0 0 .72.31 1 1 0 0 0 .72-.3l6.78-7a1 1 0 1 0-1.44-1.4l-6.05 6.26z"/> </g> </g> </g>
</svg>