<svg width="50" height="50" viewBox="0 0 50 50" fill="none" xmlns="http://www.w3.org/2000/svg">
<path d="M44.805 50C44.4864 50 44.2016 49.7754 44.1373 49.4508L39.2317 24.6736C39.1587 24.3046 39.3988 23.946 39.7678 23.8729C40.1363 23.8002 40.4952 24.0397 40.5685 24.409L45.4741 49.1862C45.5471 49.5552 45.307 49.9139 44.938 49.9869C44.8936 49.9956 44.8489 50 44.805 50ZM16.2753 50C16.2314 50 16.1867 49.9956 16.1423 49.9869C15.7733 49.9139 15.5332 49.5555 15.6062 49.1862L20.5118 24.409C20.5851 24.04 20.9443 23.8007 21.3125 23.8729C21.6815 23.946 21.9216 24.3044 21.8486 24.6736L16.943 49.4508C16.8787 49.7754 16.5939 50 16.2753 50ZM37.309 50C36.9542 50 36.6549 49.7253 36.6299 49.3661L34.9039 24.5889C34.8778 24.2133 35.1609 23.8879 35.5362 23.8618C35.9131 23.8353 36.2372 24.1188 36.2633 24.494L37.9893 49.2712C38.0154 49.6468 37.7323 49.9722 37.357 49.9984C37.3409 49.9995 37.3248 50 37.309 50ZM23.7716 50C23.7558 50 23.7397 49.9995 23.7236 49.9984C23.3483 49.9722 23.0652 49.6468 23.0913 49.2712L24.8173 24.494C24.8434 24.1188 25.1688 23.8353 25.5444 23.8618C25.9197 23.8879 26.2028 24.2133 26.1767 24.5889L24.4507 49.3661C24.4256 49.7253 24.1264 50 23.7716 50ZM30.5402 50C30.1638 50 29.8588 49.695 29.8588 49.3187V24.5415C29.8588 24.1651 30.1638 23.8601 30.5402 23.8601C30.9165 23.8601 31.2215 24.1651 31.2215 24.5415V49.3187C31.2215 49.695 30.9165 50 30.5402 50ZM5.20453 50C4.82816 50 4.5232 49.695 4.5232 49.3187V14.4747C4.49867 13.9934 4.26402 7.78323 8.19665 3.61704C10.4625 1.21713 13.6413 0 17.6448 0C22.2094 0 25.7368 1.24383 28.1293 3.69689C30.7274 6.36089 31.1945 9.65007 31.2752 10.9356C36.767 11.2801 41.1291 15.8575 41.1291 21.4343C41.1291 21.8107 40.8241 22.1157 40.4478 22.1157H20.7715C20.3952 22.1157 20.0902 21.8107 20.0902 21.4343C20.0902 15.8701 24.4324 11.3008 29.9065 10.9378C29.8166 9.78688 29.3674 6.90867 27.1411 4.63494C25.0146 2.46369 21.8194 1.36266 17.6448 1.36266C14.0348 1.36266 11.1918 2.43371 9.19385 4.5461C5.59071 8.35554 5.8815 14.3578 5.88477 14.4177C5.88531 14.4303 5.88586 14.4436 5.88586 14.4564V49.3187C5.88586 49.695 5.58089 50 5.20453 50ZM21.4779 20.753H39.7416C39.3917 16.021 35.4296 12.2773 30.6099 12.2773C25.7902 12.2773 21.8279 16.021 21.4779 20.753Z" fill="#050931"/>
</svg>
