<svg width="50" height="50" viewBox="0 0 50 50" fill="none" xmlns="http://www.w3.org/2000/svg">
<path d="M49.1228 10.9648H36.8421C36.357 10.9648 35.9649 11.3569 35.9649 11.842V22.3684V24.1227V28.5087H24.5614H14.0351H0.877193C0.392105 28.5087 0 28.9008 0 29.3859V39.9122C0 40.3973 0.392105 40.7894 0.877193 40.7894H14.0351H24.5614H36.8421H49.1228C49.6079 40.7894 50 40.3973 50 39.9122V24.1227V22.3684V11.842C50 11.3569 49.6079 10.9648 49.1228 10.9648ZM35.9649 33.7719H25.4386V30.2631H35.9649V33.7719ZM1.75439 30.2631H13.1579V39.035H1.75439V30.2631ZM14.9123 30.2631H23.6842V33.7719H23.6526V35.5262H23.6842V39.035H14.9123V30.2631ZM25.4386 35.5262H35.9649V39.035H25.4386V35.5262ZM48.2456 39.035H37.7193V35.5262V33.7719V29.3859V24.1227H48.2456V39.035ZM37.7193 22.3684V12.7192H48.2456V22.3684H37.7193Z" fill="#050931"/>
<path d="M40.3509 17.1052H38.5965V21.4912H40.3509V17.1052Z" fill="#050931"/>
<path d="M40.3509 25H38.5965V29.386H40.3509V25Z" fill="#050931"/>
<path d="M12.2807 31.1404H10.5263V35.5263H12.2807V31.1404Z" fill="#050931"/>
<path d="M21.9298 31.1404H16.6667C16.1816 31.1404 15.7895 31.5325 15.7895 32.0176V36.4035C15.7895 36.8886 16.1816 37.2807 16.6667 37.2807H21.9298C22.4149 37.2807 22.807 36.8886 22.807 36.4035V32.0176C22.807 31.5325 22.4149 31.1404 21.9298 31.1404ZM21.0526 35.5263H17.5438V32.8948H21.0526V35.5263Z" fill="#050931"/>
<path d="M23.6842 21.4912H27.193V19.7368H24.3772L22.0316 9.88501C21.9377 9.49027 21.5842 9.21045 21.1781 9.21045H17.4193C17.0132 9.21045 16.6605 9.4894 16.5658 9.88501L14.2193 19.7368H11.4035V21.4912H14.9123H23.6842ZM18.1114 10.9648H20.4842L22.5737 19.7368H16.0219L18.1114 10.9648Z" fill="#050931"/>
</svg>
