<svg width="50" height="50" viewBox="0 0 50 50" fill="none" xmlns="http://www.w3.org/2000/svg">
<path d="M17.6471 17.647C20.0836 17.647 22.0588 15.6718 22.0588 13.2353C22.0588 10.7987 20.0836 8.82353 17.6471 8.82353C15.2105 8.82353 13.2354 10.7987 13.2354 13.2353C13.2354 15.6718 15.2105 17.647 17.6471 17.647Z" fill="#050931"/>
<path d="M25 7.35293C27.0305 7.35293 28.6765 5.70692 28.6765 3.67646C28.6765 1.64601 27.0305 0 25 0C22.9695 0 21.3235 1.64601 21.3235 3.67646C21.3235 5.70692 22.9695 7.35293 25 7.35293Z" fill="#050931"/>
<path d="M30.1471 22.0588C32.9897 22.0588 35.2941 19.7544 35.2941 16.9117C35.2941 14.0691 32.9897 11.7646 30.1471 11.7646C27.3044 11.7646 25 14.0691 25 16.9117C25 19.7544 27.3044 22.0588 30.1471 22.0588Z" fill="#050931"/>
<path d="M47.7941 25H2.20596C0.987695 25 0 25.9877 0 27.2059C0 28.424 0.987695 29.4117 2.20586 29.4117H2.94111V36.0294C2.94111 40.8313 6.01084 44.9144 10.294 46.4288V50H14.7059V47.0588H35.294V50H39.7059V46.4288C43.9893 44.9144 47.0588 40.8313 47.0588 36.0294V29.4117H47.794C49.0123 29.4117 49.9999 28.4241 49.9999 27.2059C49.9999 25.9876 49.0123 25 47.7941 25ZM42.6471 36.0294C42.6471 39.6783 39.6785 42.6471 36.0294 42.6471H13.9706C10.3217 42.6471 7.35293 39.6782 7.35293 36.0294V29.4117H42.6471V36.0294Z" fill="#050931"/>
</svg>
