<svg width="50" height="50" viewBox="0 0 50 50" fill="none" xmlns="http://www.w3.org/2000/svg">
<path d="M46.1823 50H3.81797C3.39521 50 3.05266 49.6574 3.05266 49.2347V45.9062C3.05266 45.4835 3.39521 45.1409 3.81797 45.1409H6.78552V0.765308C6.78552 0.342552 7.12807 0 7.55083 0H42.4489C42.8716 0 43.2142 0.342552 43.2142 0.765308V45.1409H46.182C46.6048 45.1409 46.9473 45.4835 46.9473 45.9062V49.235C46.9476 49.6574 46.6048 50 46.1823 50ZM4.58327 48.4694H45.417V46.6712H4.58327V48.4694ZM8.31614 45.1409H41.6836V1.53062H8.31614V45.1409V45.1409ZM39.3876 43.5714H26.5305C26.1077 43.5714 25.7652 43.2289 25.7652 42.8061V3.62235C25.7652 3.1996 26.1077 2.85705 26.5305 2.85705H30.1115C30.1152 2.85705 30.1191 2.85705 30.1247 2.85705H32.9196C32.9251 2.85705 32.9303 2.85705 32.9358 2.85705H35.303C35.3058 2.85705 35.3079 2.85705 35.3095 2.85705H39.3873C39.8101 2.85705 40.1526 3.1996 40.1526 3.62235V37.0642C40.1526 37.0654 40.1526 37.0666 40.1526 37.0678V42.8061C40.1529 43.2289 39.8104 43.5714 39.3876 43.5714ZM27.2958 42.0408H38.6223V37.3528C37.8515 36.4323 35.1184 32.8222 32.9058 25.5809C30.6864 18.3172 29.6538 7.30073 29.4105 4.38797H27.2958V42.0408V42.0408ZM30.9481 4.38766C31.2105 7.42777 32.2537 18.2088 34.3697 25.1336C35.8149 29.8629 37.4884 32.9756 38.6226 34.7376V4.38766H36.1296C36.2658 6.09613 36.6457 10.1094 37.3632 12.6487C37.4783 13.0555 37.242 13.4783 36.8352 13.5934C36.4268 13.7073 36.005 13.4716 35.8905 13.065C35.1093 10.3029 34.7226 6.06981 34.5928 4.38736H33.7626C33.9604 6.5593 34.5426 12.5042 35.3036 16.2239C35.3881 16.6381 35.1212 17.0422 34.7073 17.127C34.2928 17.2118 33.8887 16.9448 33.8043 16.5306C33.0004 12.6025 32.4108 6.46318 32.2253 4.38766H30.9481V4.38766ZM23.4692 43.5714H10.6121C10.1893 43.5714 9.84675 43.2289 9.84675 42.8061V37.0669C9.84675 37.0663 9.84675 37.0657 9.84675 37.0651V3.62235C9.84675 3.1996 10.1893 2.85705 10.6121 2.85705H14.3841C14.3878 2.85705 14.3918 2.85705 14.3973 2.85705H16.7615C16.767 2.85705 16.7722 2.85705 16.7777 2.85705H19.8753C19.8806 2.85705 19.8845 2.85705 19.8885 2.85705H23.4692C23.892 2.85705 24.2345 3.1996 24.2345 3.62235V42.8061C24.2345 43.2289 23.892 43.5714 23.4692 43.5714ZM11.3774 42.0408H22.7039V4.38766H20.5895C20.3462 7.30073 19.3136 18.3172 17.0942 25.5806C14.8816 32.8219 12.1485 36.432 11.3774 37.3528V42.0408ZM11.3774 4.38766V34.7303C12.5143 32.9606 14.1916 29.8418 15.6306 25.1333C17.7463 18.2085 18.7895 7.42777 19.0522 4.38736H17.4726C17.2871 6.46318 16.6975 12.6025 15.8933 16.5306C15.8085 16.9451 15.402 17.2109 14.9902 17.127C14.5757 17.0422 14.3088 16.6378 14.3939 16.2236C15.1555 12.503 15.7378 6.55899 15.9352 4.38736H15.1047C14.9749 6.06981 14.588 10.3029 13.8071 13.065C13.6926 13.4716 13.2695 13.7091 12.8627 13.5934C12.4558 13.4786 12.2192 13.0555 12.3343 12.6487C13.0528 10.1076 13.4321 6.09522 13.5683 4.38766H11.3774V4.38766Z" fill="#050931"/>
</svg>
