<?xml version="1.0" standalone="no"?>
<!DOCTYPE svg PUBLIC "-//W3C//DTD SVG 1.0//EN" "http://www.w3.org/TR/2001/REC-SVG-20010904/DTD/svg10.dtd">
<svg xmlns="http://www.w3.org/2000/svg" xmlns:xlink="http://www.w3.org/1999/xlink" id="body_1" width="102" height="78">

<g transform="matrix(0.76691735 0 0 0.77227724 0 0)">
	<g transform="matrix(0.43042073 0 0 0.43042073 -0 0.14077535)">
        <path d="M271.95 232.5L307.5 232.5" stroke="#263B8E" stroke-width="3" stroke-linecap="round" fill="none" />
        <path d="M43.820007 232.5L260.52 232.5" stroke="#263B8E" stroke-width="3" stroke-linecap="round" fill="none" />
        <path d="M1.5 232.5L33.239998 232.5" stroke="#263B8E" stroke-width="3" stroke-linecap="round" fill="none" />
        <path d="M248.39 66L248.39 4.28C 248.39267 3.5436187 248.102 2.8364859 247.58223 2.314845C 247.06247 1.7932045 246.35638 1.499994 245.62 1.5L245.62 1.5L56.82 1.5C 56.083614 1.499995 55.377533 1.793206 54.85777 2.3148465C 54.338005 2.836487 54.04734 3.5436194 54.05 4.28L54.05 4.28L54.05 232.5" stroke="#263B8E" stroke-width="3" stroke-linecap="round" fill="none" />
        <path transform="matrix(1 0 0 1 -94.5 -137.5)"  d="M342.89 370L342.89 365.11L342.89 308.06L342.89 222" stroke="#263B8E" stroke-width="3" stroke-linecap="round" fill="none" />
        <path d="M83.57 52.92C 77.032104 44.466217 78.58081 32.313824 87.03 25.769999C 91.089455 22.624529 96.23281 21.22179 101.327126 21.870771C 106.42144 22.519753 111.04883 25.167217 114.19 29.23" stroke="#263B8E" stroke-width="3" stroke-linecap="round" fill="none" />
        <path d="M114.19 29.23L83.57 52.92" stroke="#263B8E" stroke-width="3" stroke-linecap="round" fill="none" />
        <path d="M110.10001 25.309998L80.91 48.289993" stroke="#263B8E" stroke-width="3" stroke-linecap="round" fill="none" />
        <path d="M54.05 135.59C 58.686028 135.43358 62.36264 131.62866 62.36 126.99L62.36 126.99L62.36 108.43C 62.36804 103.78745 58.689907 99.97654 54.05 99.82" stroke="#263B8E" stroke-width="3" stroke-linecap="round" fill="none" />
        <path d="M62.36 110.42L70.36 110.42C 71.06282 110.41999 71.73686 110.69919 72.23383 111.19616C 72.730804 111.69313 73.01 112.36717 73.01 113.07L73.01 113.07L73.01 121.02C 73.01 121.722824 72.730804 122.396866 72.23383 122.89384C 71.73686 123.39081 71.06282 123.670006 70.36 123.67L70.36 123.67L62.36 123.67" stroke="#263B8E" stroke-width="3" stroke-linecap="round" fill="none" />
        <path d="M72.97 113.07L94.090004 113.07C 94.46745 113.06996 94.829155 113.22126 95.09416 113.49003C 95.35918 113.7588 95.50536 114.1226 95.50001 114.5L95.50001 114.5L95.50001 134.3C 95.50001 136.50914 93.709145 138.3 91.50001 138.3C 89.29087 138.3 87.50001 136.50914 87.50001 134.3L87.50001 134.3L87.50001 121.100006C 87.494514 120.325195 86.86484 119.69999 86.090004 119.700005L86.090004 119.700005L72.97 119.700005" stroke="#263B8E" stroke-width="3" stroke-linecap="round" fill="none" />
        <path transform="matrix(1 0 0 1 -94.5 -137.5)"  d="M148.55 308.06L209.16 308.06L209.16 315.46L148.55 315.46" stroke="#263B8E" stroke-width="3" stroke-linecap="round" fill="none" />
        <path d="M143.72 117.59C 147.21103 116.07204 149.11511 112.272995 148.242 108.56771C 147.3689 104.86242 143.9689 102.31323 140.16742 102.51367C 136.36592 102.71412 133.25287 105.60672 132.77425 109.383286C 132.29564 113.15984 134.58868 116.73758 138.22 117.88" stroke="#263B8E" stroke-width="3" stroke-linecap="round" fill="none" />
        <path d="M143.72 136.21C 147.20236 137.73383 149.09525 141.53131 148.21577 145.22935C 147.33629 148.92738 143.93648 151.46613 140.14095 151.2591C 136.34541 151.05206 133.24193 148.15858 132.76988 144.38684C 132.29785 140.61508 134.59256 137.04602 138.22 135.91" stroke="#263B8E" stroke-width="3" stroke-linecap="round" fill="none" />
        <path d="M138.22 108.81L138.22 144.20999" stroke="#263B8E" stroke-width="3" stroke-linecap="round" fill="none" />
        <path d="M143.72 108.81L143.72 144.20999" stroke="#263B8E" stroke-width="3" stroke-linecap="round" fill="none" />
        <path d="M211.38 13.529999L236.35999 38.520004" stroke="#263B8E" stroke-width="3" stroke-linecap="round" fill="none" />
        <path d="M211.38 26.490005L225.26001 40.369995" stroke="#263B8E" stroke-width="3" stroke-linecap="round" fill="none" />
        <path d="M248.39 217.61L202.5 217.61L202.5 197.22L178.98 197.22L178.98 189.5C 178.98552 179.06572 187.44571 170.61 197.87999 170.61L197.87999 170.61L248.38998 170.61" stroke="#263B8E" stroke-width="3" stroke-linecap="round" fill="none" />
        <path d="M87.02 25.77C 80.27096 14.433008 66.35066 9.586212 54.019997 14.280001L54.019997 14.280001L54.019997 65.04" stroke="#263B8E" stroke-width="3" stroke-linecap="round" fill="none" />
        <path d="M102.95 60.86L106.60001 65.759995" stroke="#263B8E" stroke-width="3" stroke-linecap="round" fill="none" />
        <path d="M96.08 51.53L100.2 57.070007" stroke="#263B8E" stroke-width="3" stroke-linecap="round" fill="none" />
        <path d="M110.66 54.770004L114.3 59.660004" stroke="#263B8E" stroke-width="3" stroke-linecap="round" fill="none" />
        <path d="M103.78 45.440002L107.89999 50.97" stroke="#263B8E" stroke-width="3" stroke-linecap="round" fill="none" />
        <path d="M118.38 48.559998L122.08 53.479996" stroke="#263B8E" stroke-width="3" stroke-linecap="round" fill="none" />
        <path d="M111.41 39.179993L115.59 44.740005" stroke="#263B8E" stroke-width="3" stroke-linecap="round" fill="none" />
	</g>
</g>
</svg>