<svg width="158" height="328" viewBox="0 0 158 328" fill="none" xmlns="http://www.w3.org/2000/svg">
<circle cx="2.5" cy="2.5" r="2.5" fill="#CACED8"/>
<circle cx="36.5" cy="2.5" r="2.5" fill="#CACED8"/>
<circle cx="70.5" cy="2.5" r="2.5" fill="#CACED8"/>
<circle cx="104.5" cy="2.5" r="2.5" fill="#CACED8"/>
<circle cx="138.5" cy="2.5" r="2.5" fill="#CACED8"/>
<circle cx="19.5" cy="2.5" r="2.5" fill="#CACED8"/>
<circle cx="53.5" cy="2.5" r="2.5" fill="#CACED8"/>
<circle cx="87.5" cy="2.5" r="2.5" fill="#CACED8"/>
<circle cx="121.5" cy="2.5" r="2.5" fill="#CACED8"/>
<circle cx="155.5" cy="2.5" r="2.5" fill="#CACED8"/>
<circle cx="2.5" cy="138.5" r="2.5" fill="#CACED8"/>
<circle cx="36.5" cy="138.5" r="2.5" fill="#CACED8"/>
<circle cx="70.5" cy="138.5" r="2.5" fill="#CACED8"/>
<circle cx="104.5" cy="138.5" r="2.5" fill="#CACED8"/>
<circle cx="138.5" cy="138.5" r="2.5" fill="#CACED8"/>
<circle cx="19.5" cy="138.5" r="2.5" fill="#CACED8"/>
<circle cx="53.5" cy="138.5" r="2.5" fill="#CACED8"/>
<circle cx="87.5" cy="138.5" r="2.5" fill="#CACED8"/>
<circle cx="121.5" cy="138.5" r="2.5" fill="#CACED8"/>
<circle cx="155.5" cy="138.5" r="2.5" fill="#CACED8"/>
<circle cx="2.5" cy="70.5" r="2.5" fill="#CACED8"/>
<circle cx="36.5" cy="70.5" r="2.5" fill="#CACED8"/>
<circle cx="70.5" cy="70.5" r="2.5" fill="#CACED8"/>
<circle cx="104.5" cy="70.5" r="2.5" fill="#CACED8"/>
<circle cx="138.5" cy="70.5" r="2.5" fill="#CACED8"/>
<circle cx="19.5" cy="70.5" r="2.5" fill="#CACED8"/>
<circle cx="53.5" cy="70.5" r="2.5" fill="#CACED8"/>
<circle cx="87.5" cy="70.5" r="2.5" fill="#CACED8"/>
<circle cx="121.5" cy="70.5" r="2.5" fill="#CACED8"/>
<circle cx="155.5" cy="70.5" r="2.5" fill="#CACED8"/>
<circle cx="2.5" cy="206.5" r="2.5" fill="#CACED8"/>
<circle cx="36.5" cy="206.5" r="2.5" fill="#CACED8"/>
<circle cx="70.5" cy="206.5" r="2.5" fill="#CACED8"/>
<circle cx="104.5" cy="206.5" r="2.5" fill="#CACED8"/>
<circle cx="138.5" cy="206.5" r="2.5" fill="#CACED8"/>
<circle cx="19.5" cy="206.5" r="2.5" fill="#CACED8"/>
<circle cx="53.5" cy="206.5" r="2.5" fill="#CACED8"/>
<circle cx="87.5" cy="206.5" r="2.5" fill="#CACED8"/>
<circle cx="121.5" cy="206.5" r="2.5" fill="#CACED8"/>
<circle cx="155.5" cy="206.5" r="2.5" fill="#CACED8"/>
<circle cx="2.5" cy="36.5" r="2.5" fill="#CACED8"/>
<circle cx="36.5" cy="36.5" r="2.5" fill="#CACED8"/>
<circle cx="70.5" cy="36.5" r="2.5" fill="#CACED8"/>
<circle cx="104.5" cy="36.5" r="2.5" fill="#CACED8"/>
<circle cx="138.5" cy="36.5" r="2.5" fill="#CACED8"/>
<circle cx="19.5" cy="36.5" r="2.5" fill="#CACED8"/>
<circle cx="53.5" cy="36.5" r="2.5" fill="#CACED8"/>
<circle cx="87.5" cy="36.5" r="2.5" fill="#CACED8"/>
<circle cx="121.5" cy="36.5" r="2.5" fill="#CACED8"/>
<circle cx="155.5" cy="36.5" r="2.5" fill="#CACED8"/>
<circle cx="2.5" cy="172.5" r="2.5" fill="#CACED8"/>
<circle cx="36.5" cy="172.5" r="2.5" fill="#CACED8"/>
<circle cx="70.5" cy="172.5" r="2.5" fill="#CACED8"/>
<circle cx="104.5" cy="172.5" r="2.5" fill="#CACED8"/>
<circle cx="138.5" cy="172.5" r="2.5" fill="#CACED8"/>
<circle cx="19.5" cy="172.5" r="2.5" fill="#CACED8"/>
<circle cx="53.5" cy="172.5" r="2.5" fill="#CACED8"/>
<circle cx="87.5" cy="172.5" r="2.5" fill="#CACED8"/>
<circle cx="121.5" cy="172.5" r="2.5" fill="#CACED8"/>
<circle cx="155.5" cy="172.5" r="2.5" fill="#CACED8"/>
<circle cx="2.5" cy="104.5" r="2.5" fill="#CACED8"/>
<circle cx="36.5" cy="104.5" r="2.5" fill="#CACED8"/>
<circle cx="70.5" cy="104.5" r="2.5" fill="#CACED8"/>
<circle cx="104.5" cy="104.5" r="2.5" fill="#CACED8"/>
<circle cx="138.5" cy="104.5" r="2.5" fill="#CACED8"/>
<circle cx="19.5" cy="104.5" r="2.5" fill="#CACED8"/>
<circle cx="53.5" cy="104.5" r="2.5" fill="#CACED8"/>
<circle cx="87.5" cy="104.5" r="2.5" fill="#CACED8"/>
<circle cx="121.5" cy="104.5" r="2.5" fill="#CACED8"/>
<circle cx="155.5" cy="104.5" r="2.5" fill="#CACED8"/>
<circle cx="2.5" cy="240.5" r="2.5" fill="#CACED8"/>
<circle cx="36.5" cy="240.5" r="2.5" fill="#CACED8"/>
<circle cx="70.5" cy="240.5" r="2.5" fill="#CACED8"/>
<circle cx="104.5" cy="240.5" r="2.5" fill="#CACED8"/>
<circle cx="138.5" cy="240.5" r="2.5" fill="#CACED8"/>
<circle cx="19.5" cy="240.5" r="2.5" fill="#CACED8"/>
<circle cx="53.5" cy="240.5" r="2.5" fill="#CACED8"/>
<circle cx="87.5" cy="240.5" r="2.5" fill="#CACED8"/>
<circle cx="121.5" cy="240.5" r="2.5" fill="#CACED8"/>
<circle cx="155.5" cy="240.5" r="2.5" fill="#CACED8"/>
<circle cx="2.5" cy="19.5" r="2.5" fill="#CACED8"/>
<circle cx="36.5" cy="19.5" r="2.5" fill="#CACED8"/>
<circle cx="70.5" cy="19.5" r="2.5" fill="#CACED8"/>
<circle cx="104.5" cy="19.5" r="2.5" fill="#CACED8"/>
<circle cx="138.5" cy="19.5" r="2.5" fill="#CACED8"/>
<circle cx="19.5" cy="19.5" r="2.5" fill="#CACED8"/>
<circle cx="53.5" cy="19.5" r="2.5" fill="#CACED8"/>
<circle cx="87.5" cy="19.5" r="2.5" fill="#CACED8"/>
<circle cx="121.5" cy="19.5" r="2.5" fill="#CACED8"/>
<circle cx="155.5" cy="19.5" r="2.5" fill="#CACED8"/>
<circle cx="2.5" cy="155.5" r="2.5" fill="#CACED8"/>
<circle cx="36.5" cy="155.5" r="2.5" fill="#CACED8"/>
<circle cx="70.5" cy="155.5" r="2.5" fill="#CACED8"/>
<circle cx="104.5" cy="155.5" r="2.5" fill="#CACED8"/>
<circle cx="138.5" cy="155.5" r="2.5" fill="#CACED8"/>
<circle cx="19.5" cy="155.5" r="2.5" fill="#CACED8"/>
<circle cx="53.5" cy="155.5" r="2.5" fill="#CACED8"/>
<circle cx="87.5" cy="155.5" r="2.5" fill="#CACED8"/>
<circle cx="121.5" cy="155.5" r="2.5" fill="#CACED8"/>
<circle cx="155.5" cy="155.5" r="2.5" fill="#CACED8"/>
<circle cx="2.5" cy="87.5" r="2.5" fill="#CACED8"/>
<circle cx="36.5" cy="87.5" r="2.5" fill="#CACED8"/>
<circle cx="70.5" cy="87.5" r="2.5" fill="#CACED8"/>
<circle cx="104.5" cy="87.5" r="2.5" fill="#CACED8"/>
<circle cx="138.5" cy="87.5" r="2.5" fill="#CACED8"/>
<circle cx="19.5" cy="87.5" r="2.5" fill="#CACED8"/>
<circle cx="53.5" cy="87.5" r="2.5" fill="#CACED8"/>
<circle cx="87.5" cy="87.5" r="2.5" fill="#CACED8"/>
<circle cx="121.5" cy="87.5" r="2.5" fill="#CACED8"/>
<circle cx="155.5" cy="87.5" r="2.5" fill="#CACED8"/>
<circle cx="2.5" cy="223.5" r="2.5" fill="#CACED8"/>
<circle cx="36.5" cy="223.5" r="2.5" fill="#CACED8"/>
<circle cx="70.5" cy="223.5" r="2.5" fill="#CACED8"/>
<circle cx="104.5" cy="223.5" r="2.5" fill="#CACED8"/>
<circle cx="138.5" cy="223.5" r="2.5" fill="#CACED8"/>
<circle cx="19.5" cy="223.5" r="2.5" fill="#CACED8"/>
<circle cx="53.5" cy="223.5" r="2.5" fill="#CACED8"/>
<circle cx="87.5" cy="223.5" r="2.5" fill="#CACED8"/>
<circle cx="121.5" cy="223.5" r="2.5" fill="#CACED8"/>
<circle cx="155.5" cy="223.5" r="2.5" fill="#CACED8"/>
<circle cx="2.5" cy="53.5" r="2.5" fill="#CACED8"/>
<circle cx="36.5" cy="53.5" r="2.5" fill="#CACED8"/>
<circle cx="70.5" cy="53.5" r="2.5" fill="#CACED8"/>
<circle cx="104.5" cy="53.5" r="2.5" fill="#CACED8"/>
<circle cx="138.5" cy="53.5" r="2.5" fill="#CACED8"/>
<circle cx="19.5" cy="53.5" r="2.5" fill="#CACED8"/>
<circle cx="53.5" cy="53.5" r="2.5" fill="#CACED8"/>
<circle cx="87.5" cy="53.5" r="2.5" fill="#CACED8"/>
<circle cx="121.5" cy="53.5" r="2.5" fill="#CACED8"/>
<circle cx="155.5" cy="53.5" r="2.5" fill="#CACED8"/>
<circle cx="2.5" cy="189.5" r="2.5" fill="#CACED8"/>
<circle cx="36.5" cy="189.5" r="2.5" fill="#CACED8"/>
<circle cx="70.5" cy="189.5" r="2.5" fill="#CACED8"/>
<circle cx="104.5" cy="189.5" r="2.5" fill="#CACED8"/>
<circle cx="138.5" cy="189.5" r="2.5" fill="#CACED8"/>
<circle cx="19.5" cy="189.5" r="2.5" fill="#CACED8"/>
<circle cx="53.5" cy="189.5" r="2.5" fill="#CACED8"/>
<circle cx="87.5" cy="189.5" r="2.5" fill="#CACED8"/>
<circle cx="121.5" cy="189.5" r="2.5" fill="#CACED8"/>
<circle cx="155.5" cy="189.5" r="2.5" fill="#CACED8"/>
<circle cx="2.5" cy="121.5" r="2.5" fill="#CACED8"/>
<circle cx="36.5" cy="121.5" r="2.5" fill="#CACED8"/>
<circle cx="70.5" cy="121.5" r="2.5" fill="#CACED8"/>
<circle cx="104.5" cy="121.5" r="2.5" fill="#CACED8"/>
<circle cx="138.5" cy="121.5" r="2.5" fill="#CACED8"/>
<circle cx="19.5" cy="121.5" r="2.5" fill="#CACED8"/>
<circle cx="53.5" cy="121.5" r="2.5" fill="#CACED8"/>
<circle cx="87.5" cy="121.5" r="2.5" fill="#CACED8"/>
<circle cx="121.5" cy="121.5" r="2.5" fill="#CACED8"/>
<circle cx="155.5" cy="121.5" r="2.5" fill="#CACED8"/>
<circle cx="2.5" cy="257.5" r="2.5" fill="#CACED8"/>
<circle cx="36.5" cy="257.5" r="2.5" fill="#CACED8"/>
<circle cx="70.5" cy="257.5" r="2.5" fill="#CACED8"/>
<circle cx="104.5" cy="257.5" r="2.5" fill="#CACED8"/>
<circle cx="138.5" cy="257.5" r="2.5" fill="#CACED8"/>
<circle cx="19.5" cy="257.5" r="2.5" fill="#CACED8"/>
<circle cx="53.5" cy="257.5" r="2.5" fill="#CACED8"/>
<circle cx="87.5" cy="257.5" r="2.5" fill="#CACED8"/>
<circle cx="121.5" cy="257.5" r="2.5" fill="#CACED8"/>
<circle cx="155.5" cy="257.5" r="2.5" fill="#CACED8"/>
<circle cx="2.5" cy="274.5" r="2.5" fill="#CACED8"/>
<circle cx="36.5" cy="274.5" r="2.5" fill="#CACED8"/>
<circle cx="70.5" cy="274.5" r="2.5" fill="#CACED8"/>
<circle cx="104.5" cy="274.5" r="2.5" fill="#CACED8"/>
<circle cx="138.5" cy="274.5" r="2.5" fill="#CACED8"/>
<circle cx="19.5" cy="274.5" r="2.5" fill="#CACED8"/>
<circle cx="53.5" cy="274.5" r="2.5" fill="#CACED8"/>
<circle cx="87.5" cy="274.5" r="2.5" fill="#CACED8"/>
<circle cx="121.5" cy="274.5" r="2.5" fill="#CACED8"/>
<circle cx="155.5" cy="274.5" r="2.5" fill="#CACED8"/>
<circle cx="2.5" cy="291.5" r="2.5" fill="#CACED8"/>
<circle cx="36.5" cy="291.5" r="2.5" fill="#CACED8"/>
<circle cx="70.5" cy="291.5" r="2.5" fill="#CACED8"/>
<circle cx="104.5" cy="291.5" r="2.5" fill="#CACED8"/>
<circle cx="138.5" cy="291.5" r="2.5" fill="#CACED8"/>
<circle cx="19.5" cy="291.5" r="2.5" fill="#CACED8"/>
<circle cx="53.5" cy="291.5" r="2.5" fill="#CACED8"/>
<circle cx="87.5" cy="291.5" r="2.5" fill="#CACED8"/>
<circle cx="121.5" cy="291.5" r="2.5" fill="#CACED8"/>
<circle cx="155.5" cy="291.5" r="2.5" fill="#CACED8"/>
<circle cx="2.5" cy="308.5" r="2.5" fill="#CACED8"/>
<circle cx="36.5" cy="308.5" r="2.5" fill="#CACED8"/>
<circle cx="70.5" cy="308.5" r="2.5" fill="#CACED8"/>
<circle cx="104.5" cy="308.5" r="2.5" fill="#CACED8"/>
<circle cx="138.5" cy="308.5" r="2.5" fill="#CACED8"/>
<circle cx="19.5" cy="308.5" r="2.5" fill="#CACED8"/>
<circle cx="53.5" cy="308.5" r="2.5" fill="#CACED8"/>
<circle cx="87.5" cy="308.5" r="2.5" fill="#CACED8"/>
<circle cx="121.5" cy="308.5" r="2.5" fill="#CACED8"/>
<circle cx="155.5" cy="308.5" r="2.5" fill="#CACED8"/>
<circle cx="2.5" cy="325.5" r="2.5" fill="#CACED8"/>
<circle cx="36.5" cy="325.5" r="2.5" fill="#CACED8"/>
<circle cx="70.5" cy="325.5" r="2.5" fill="#CACED8"/>
<circle cx="104.5" cy="325.5" r="2.5" fill="#CACED8"/>
<circle cx="138.5" cy="325.5" r="2.5" fill="#CACED8"/>
<circle cx="19.5" cy="325.5" r="2.5" fill="#CACED8"/>
<circle cx="53.5" cy="325.5" r="2.5" fill="#CACED8"/>
<circle cx="87.5" cy="325.5" r="2.5" fill="#CACED8"/>
<circle cx="121.5" cy="325.5" r="2.5" fill="#CACED8"/>
<circle cx="155.5" cy="325.5" r="2.5" fill="#CACED8"/>
</svg>
