<?xml version="1.0" encoding="utf-8"?>
<!-- Generator: Adobe Illustrator 27.8.1, SVG Export Plug-In . SVG Version: 6.00 Build 0)  -->
<svg version="1.1" id="Layer_1" xmlns="http://www.w3.org/2000/svg" xmlns:xlink="http://www.w3.org/1999/xlink" x="0px" y="0px"
	 viewBox="0 0 1254.5 445.5" style="enable-background:new 0 0 1254.5 445.5;" xml:space="preserve">
<style type="text/css">
	.st0{fill:#0b1b3f;}
	.st1{fill:#55BC7E;}
</style>
<g>
	<g>
		<g>
			<path class="st0" d="M23.1,415v-73.1h12.4v31.7h36.2v-31.7h12.4V415H71.7v-29.9H35.5V415H23.1z"/>
			<path class="st0" d="M160.9,415.8c-11,0-20.1-3.6-27.5-10.8c-7.4-7.2-11.1-16.2-11.1-27c0-10.8,3.7-19.8,11.1-27
				c7.4-7.2,16.5-10.8,27.5-10.8c11,0,20.1,3.6,27.5,10.8c7.4,7.2,11.1,16.2,11.1,27c0,10.8-3.7,19.7-11.2,26.9
				C180.8,412.1,171.7,415.8,160.9,415.8z M160.9,351.3c-7.3,0-13.4,2.6-18.4,7.8c-5,5.2-7.5,11.5-7.5,18.8c0,7.4,2.5,13.6,7.5,18.8
				c5,5.1,11.1,7.7,18.4,7.7c7.3,0,13.4-2.6,18.4-7.7c5-5.1,7.5-11.4,7.5-18.8c0-7.4-2.5-13.7-7.5-18.8
				C174.3,353.9,168.2,351.3,160.9,351.3z"/>
			<path class="st0" d="M250.2,415h-12.4v-73.1h19.3l22,45.9l22.1-45.9h19.1V415h-12.3v-57.1l-25.6,50.7h-6.9l-25.4-50.7V415z"/>
			<path class="st0" d="M414.8,341.9v11.5h-39v19.4h35v10.9h-35v19.6H416V415h-52.6v-73.1H414.8z"/>
			<path class="st0" d="M562.8,360.3c0,3.1,1.1,5.3,3.4,6.7c2.3,1.7,7.2,3.4,14.7,5.2c7.9,1.9,13.6,4.5,17.3,7.8
				c3.6,3.3,5.5,8,5.5,14.2c0,6.5-2.4,11.7-7.3,15.7c-4.8,4-11.1,6-18.9,6c-11.3,0-21.4-4-30.5-12l7.8-9.3c7.6,6.5,15.3,9.7,23,9.7
				c3.9,0,7-0.9,9.4-2.6c2.4-1.7,3.6-4,3.6-6.8c0-2.8-1.1-5-3.2-6.6c-2.2-1.6-6-3-11.4-4.3c-9.5-2.2-16.1-4.8-19.7-7.8
				c-4.3-3.3-6.4-8.3-6.4-15.1c0-6.6,2.4-11.7,7.2-15.5c4.8-3.7,10.9-5.6,18.4-5.6c10.1,0,18.7,2.9,25.9,8.8l-6.6,9.3
				c-2.2-2-5.1-3.6-8.8-4.9c-3.7-1.2-7.3-1.9-10.9-1.9c-3.7,0-6.7,0.8-8.9,2.3C563.9,355.3,562.8,357.5,562.8,360.3z"/>
			<path class="st0" d="M693,341.9v11.5h-39v19.4h35v10.9h-35v19.6h40.2V415h-52.6v-73.1H693z"/>
			<path class="st0" d="M775.4,388.4l19.1,26.6h-15.7l-17.5-24.7h-16.1V415h-12.4v-73.1H760c11.1,0,19,1.9,23.9,5.6
				c4.8,3.7,7.3,9.8,7.3,18.2C791.1,377.7,785.8,385.3,775.4,388.4z M760.4,379.3c6.9,0,11.6-1,14.2-3.1c2.6-2.1,3.9-5.6,3.9-10.6
				c0-4.8-1.3-8-3.9-9.8c-2.6-1.7-7.2-2.6-13.9-2.6h-15.6v26.2H760.4z"/>
			<path class="st0" d="M865.1,415h-13.8l-29.5-73.1h13.9l22.4,54.6l22.6-54.6h13.8L865.1,415z"/>
			<path class="st0" d="M927.7,341.9h12.4V415h-12.4V341.9z"/>
			<path class="st0" d="M1037,394.8l7.9,8.1c-7.6,8.7-17,13-28.1,13c-11.1,0-20.3-3.6-27.6-10.7c-7.3-7.1-11-16.1-11-27
				c0-11,3.7-20.1,11.2-27.3c7.5-7.2,16.9-10.8,28.3-10.8c11.2,0,20.6,4.2,28.3,12.6l-7.8,8.5c-3.5-3.4-6.8-5.7-9.9-7
				c-3.1-1.3-6.7-1.9-10.9-1.9c-7.5,0-13.7,2.4-18.8,7.2c-5,4.8-7.6,10.9-7.6,18.2c0,7.3,2.5,13.5,7.5,18.5c5,5.1,10.9,7.6,17.8,7.6
				c4.2,0,7.8-0.7,10.8-2.1C1030.3,400.3,1033.5,398,1037,394.8z"/>
			<path class="st0" d="M1134.2,341.9v11.5h-39v19.4h35v10.9h-35v19.6h40.2V415h-52.6v-73.1H1134.2z"/>
			<path class="st0" d="M1183.8,360.3c0,3.1,1.1,5.3,3.4,6.7c2.3,1.7,7.2,3.4,14.7,5.2c7.9,1.9,13.6,4.5,17.3,7.8
				c3.6,3.3,5.5,8,5.5,14.2c0,6.5-2.4,11.7-7.3,15.7c-4.8,4-11.1,6-18.9,6c-11.3,0-21.4-4-30.5-12l7.8-9.3c7.6,6.5,15.3,9.7,23,9.7
				c3.9,0,7-0.9,9.4-2.6c2.4-1.7,3.6-4,3.6-6.8c0-2.8-1.1-5-3.2-6.6c-2.2-1.6-6-3-11.4-4.3c-9.5-2.2-16.1-4.8-19.7-7.8
				c-4.3-3.3-6.4-8.3-6.4-15.1c0-6.6,2.4-11.7,7.2-15.5c4.8-3.7,10.9-5.6,18.4-5.6c10.1,0,18.7,2.9,25.9,8.8l-6.6,9.3
				c-2.2-2-5.1-3.6-8.8-4.9c-3.7-1.2-7.3-1.9-10.9-1.9c-3.7,0-6.7,0.8-8.9,2.3C1184.9,355.3,1183.8,357.5,1183.8,360.3z"/>
		</g>
	</g>
	<g>
		<g>
			<path class="st0" d="M788.4,99.4h33v196.8h-35.8L674.1,152.5v143.7h-33.4V99.4h33.4l114.3,146.9V99.4z"/>
			<path class="st0" d="M1014.6,99.4v31h-105v52.3h94.2v29.4h-94.2v52.7h108.3v31.4H876.1V99.4H1014.6z"/>
			<path class="st0" d="M1141.3,266.8c15.3,0,27.4-5.2,36.4-15.7c9-10.5,13.5-24.7,13.5-42.7V99.4h33.4v110.3
				c0,27.9-7.6,49.6-22.9,65.2c-15.3,15.6-35.4,23.3-60.4,23.3c-24.9,0-45.1-7.8-60.4-23.3c-15.3-15.6-22.9-37.3-22.9-65.2V99.4h33
				v109.1c0,18.2,4.6,32.5,13.7,42.7C1113.6,261.6,1125.8,266.8,1141.3,266.8z"/>
		</g>
		<g>
			<path class="st1" d="M262.2,204.7L170,298.2h192.8L262.2,204.7z M259.4,276.4h-12.6v-12.6h12.6V276.4z M259.4,258.6h-12.6V246
				h12.6V258.6z M277.6,276.4H265v-12.6h12.6V276.4z M265,258.6V246h12.6v12.6H265z"/>
			<path class="st1" d="M583.1,298.2H471.9L412.4,239l35.1-35.7l89.3,89l32.9,0.3L303.1,26.1L36.5,292.6h33.9l27.3-27.5L268.6,93.5
				l5.8-5.9l28.6-28.7l138.9,139l-47.5,48.3c-3.4,4.9-2.9,11.6,1.4,15.7c4.4,4.3,11.1,4.7,15.8,1.3l2.3,2.3l0.8,0.8l4.3,4.2
				l-24.9,24.9h-14l1-1c4.7-4.7,5.4-12.4,1.1-17.3c-3.4-3.8-8.3-5-12.8-3.7l-14.1-14.1c-2.4-2-13.1-11.9-15.3-27.5
				c-2.5-17.5,7.4-28.6,9-30.4c-2.1,8.1,0.3,17.1,6.6,23.7c0,0.1,0.1,0.1,0.2,0.2c8.8,9.3,23.8,8.7,32.8-0.4l4.8-4.9l-23.8-23.8
				l-1.5-1.5l0,0L342.4,169h-88.8l-56.8,56.5v-27.2L175,220.1v27.2l-50.1,50.9H23.1l280-280L583.1,298.2z"/>
		</g>
	</g>
</g>
</svg>
