<?xml version="1.0" encoding="utf-8"?>
<!-- Generator: Adobe Illustrator 27.8.1, SVG Export Plug-In . SVG Version: 6.00 Build 0)  -->
<svg version="1.1" id="Layer_1" xmlns="http://www.w3.org/2000/svg" xmlns:xlink="http://www.w3.org/1999/xlink" x="0px" y="0px"
	 viewBox="0 0 447 142" style="enable-background:new 0 0 447 142;" xml:space="preserve">
<style type="text/css">
	.st0{fill:#FFFFFF;}
	.st1{fill:#55BC7E;}
</style>
<g>
	<g>
		<g>
			<path class="st0" d="M19,131.3V114h2.9v7.5h8.6V114h2.9v17.3h-2.9v-7.1h-8.6v7.1H19z"/>
			<path class="st0" d="M62.8,131.5c-2.6,0-4.8-0.9-6.5-2.6c-1.7-1.7-2.6-3.8-2.6-6.4c0-2.5,0.9-4.7,2.6-6.4
				c1.7-1.7,3.9-2.6,6.5-2.6c2.6,0,4.8,0.9,6.5,2.6c1.7,1.7,2.6,3.8,2.6,6.4c0,2.5-0.9,4.7-2.7,6.4
				C67.5,130.6,65.3,131.5,62.8,131.5z M62.8,116.2c-1.7,0-3.2,0.6-4.4,1.8s-1.8,2.7-1.8,4.5c0,1.7,0.6,3.2,1.8,4.4s2.6,1.8,4.4,1.8
				c1.7,0,3.2-0.6,4.4-1.8s1.8-2.7,1.8-4.4s-0.6-3.2-1.8-4.5C65.9,116.9,64.5,116.2,62.8,116.2z"/>
			<path class="st0" d="M95,131.3h-2.9V114h4.6l5.2,10.9l5.2-10.9h4.5v17.3h-2.9v-13.5l-6.1,12H101l-6-12V131.3z"/>
			<path class="st0" d="M145.1,114v2.7h-9.2v4.6h8.3v2.6h-8.3v4.6h9.5v2.8h-12.5V114H145.1z"/>
			<path class="st0" d="M191.2,118.4c0,0.7,0.3,1.3,0.8,1.6c0.5,0.4,1.7,0.8,3.5,1.2c1.9,0.4,3.2,1.1,4.1,1.8
				c0.9,0.8,1.3,1.9,1.3,3.4s-0.6,2.8-1.7,3.7c-1.1,0.9-2.6,1.4-4.5,1.4c-2.7,0-5.1-0.9-7.2-2.8l1.8-2.2c1.8,1.5,3.6,2.3,5.5,2.3
				c0.9,0,1.7-0.2,2.2-0.6c0.6-0.4,0.8-0.9,0.8-1.6c0-0.7-0.3-1.2-0.8-1.6c-0.5-0.4-1.4-0.7-2.7-1c-2.2-0.5-3.8-1.1-4.7-1.8
				c-1-0.8-1.5-2-1.5-3.6s0.6-2.8,1.7-3.7c1.1-0.9,2.6-1.3,4.4-1.3c2.4,0,4.4,0.7,6.1,2.1l-1.6,2.2c-0.5-0.5-1.2-0.9-2.1-1.2
				c-0.9-0.3-1.7-0.4-2.6-0.4c-0.9,0-1.6,0.2-2.1,0.5C191.5,117.2,191.2,117.7,191.2,118.4z"/>
			<path class="st0" d="M233.2,114v2.7H224v4.6h8.3v2.6H224v4.6h9.5v2.8H221V114H233.2z"/>
			<path class="st0" d="M263.8,125l4.5,6.3h-3.7l-4.1-5.8h-3.8v5.8h-2.9V114h6.4c2.6,0,4.5,0.4,5.6,1.3c1.1,0.9,1.7,2.3,1.7,4.3
				C267.5,122.5,266.3,124.3,263.8,125z M260.2,122.9c1.6,0,2.7-0.2,3.4-0.7c0.6-0.5,0.9-1.3,0.9-2.5c0-1.1-0.3-1.9-0.9-2.3
				c-0.6-0.4-1.7-0.6-3.3-0.6h-3.7v6.2L260.2,122.9L260.2,122.9z"/>
			<path class="st0" d="M296.1,131.3h-3.3l-7-17.3h3.3l5.3,12.9l5.3-12.9h3.3L296.1,131.3z"/>
			<path class="st0" d="M322.1,114h2.9v17.3h-2.9V114z"/>
			<path class="st0" d="M359.1,126.5l1.9,1.9c-1.8,2.1-4,3.1-6.7,3.1c-2.6,0-4.8-0.8-6.5-2.5s-2.6-3.8-2.6-6.4
				c0-2.6,0.9-4.7,2.7-6.5c1.8-1.7,4-2.6,6.7-2.6c2.6,0,4.9,1,6.7,3l-1.8,2c-0.8-0.8-1.6-1.4-2.3-1.7c-0.7-0.3-1.6-0.5-2.6-0.5
				c-1.8,0-3.3,0.6-4.4,1.7c-1.2,1.1-1.8,2.6-1.8,4.3s0.6,3.2,1.8,4.4c1.2,1.2,2.6,1.8,4.2,1.8c1,0,1.8-0.2,2.6-0.5
				C357.5,127.8,358.2,127.3,359.1,126.5z"/>
			<path class="st0" d="M393.2,114v2.7H384v4.6h8.3v2.6H384v4.6h9.5v2.8H381V114H393.2z"/>
			<path class="st0" d="M416,118.4c0,0.7,0.3,1.3,0.8,1.6c0.5,0.4,1.7,0.8,3.5,1.2c1.9,0.4,3.2,1.1,4.1,1.8c0.9,0.8,1.3,1.9,1.3,3.4
				s-0.6,2.8-1.7,3.7s-2.6,1.4-4.5,1.4c-2.7,0-5.1-0.9-7.2-2.8l1.8-2.2c1.8,1.5,3.6,2.3,5.5,2.3c0.9,0,1.7-0.2,2.2-0.6
				c0.6-0.4,0.8-0.9,0.8-1.6c0-0.7-0.3-1.2-0.8-1.6c-0.5-0.4-1.4-0.7-2.7-1c-2.2-0.5-3.8-1.1-4.7-1.8c-1-0.8-1.5-2-1.5-3.6
				s0.6-2.8,1.7-3.7s2.6-1.3,4.4-1.3c2.4,0,4.4,0.7,6.1,2.1l-1.6,2.2c-0.5-0.5-1.2-0.9-2.1-1.2s-1.7-0.4-2.6-0.4s-1.6,0.2-2.1,0.5
				C416.3,117.2,416,117.7,416,118.4z"/>
		</g>
	</g>
	<g>
		<g>
			<path class="st0" d="M278,32.1h11.2v66.6h-12.1L239.4,50v48.6h-11.3V32.1h11.3l38.7,49.7V32.1H278z"/>
			<path class="st0" d="M354.6,32.1v10.5H319v17.7h31.9v9.9H319V88h36.6v10.6h-47.9V32.1H354.6z"/>
			<path class="st0" d="M397.5,88.7c5.2,0,9.3-1.8,12.3-5.3s4.6-8.4,4.6-14.4V32.1h11.3v37.3c0,9.4-2.6,16.8-7.8,22.1
				c-5.2,5.3-12,7.9-20.4,7.9s-15.3-2.6-20.4-7.9c-5.2-5.3-7.8-12.6-7.8-22.1V32.1h11.2V69c0,6.2,1.5,11,4.6,14.4
				C388.1,87,392.2,88.7,397.5,88.7z"/>
		</g>
		<g>
			<path class="st1" d="M99.9,67.7L68.7,99.4H134L99.9,67.7z M99,92h-4.3v-4.3H99V92z M99,85.9h-4.3v-4.3H99V85.9z M105.1,92h-4.3
				v-4.3h4.3V92z M100.9,85.9v-4.3h4.3v4.3H100.9z"/>
			<path class="st1" d="M208.6,99.3h-37.7l-20.1-20l11.9-12.1l30.2,30.1l11.1,0.1L113.8,7.2L23.6,97.4H35l9.3-9.3L102.1,30l2-2
				l9.7-9.7l47,47l-16.1,16.4c-1.1,1.7-1,3.9,0.5,5.3s3.7,1.6,5.4,0.4l0.8,0.8l0.3,0.3l1.5,1.4l-8.4,8.4H140l0.3-0.3
				c1.6-1.6,1.8-4.2,0.4-5.9c-1.1-1.3-2.8-1.7-4.3-1.2l-4.8-4.8c-0.8-0.7-4.4-4-5.2-9.3c-0.8-5.9,2.5-9.7,3-10.3
				c-0.7,2.7,0.1,5.8,2.2,8c0,0,0,0,0.1,0.1c3,3.1,8.1,2.9,11.1-0.1l1.6-1.7l-8.1-8l-0.5-0.5l0,0l-8.7-8.7H97L77.8,74.7v-9.2
				l-7.4,7.4v9.2l-17,17.2H19l94.8-94.8L208.6,99.3z"/>
		</g>
	</g>
</g>
</svg>
